# xmcd
#
# Track frame offsets: 
#        150
#        37200
#        59772
#        85215
#        109217
#        123879
#        149882
#
# Disc length: 2188 seconds
#
# Revision: 1
# Processed by: cddbd v1.5.2PL0 Copyright (c) Steve Scherf et al.
# Submitted via: ExactAudioCopy v0.99pb4
#
DISCID=6e088a07
DTITLE=Larry Coryell - The Restful Mind
DYEAR=1975
DGENRE=Jazz
TTITLE0=Improvisation On Robert De Visee's Menuet II
TTITLE1=Ann Arbor
TTITLE2=Pavane For A Dead Princess
TTITLE3=Improvisation On Robert De Visee's Sarabande
TTITLE4=Song For Jim Webb
TTITLE5=Julie La Belle
TTITLE6=The Restful Mind
EXTD=
EXTT0=
EXTT1=
EXTT2=
EXTT3=
EXTT4=
EXTT5=
EXTT6=
PLAYORDER=
